{"accessors" : [{"bufferView" : 0, "byteOffset" : 0, "componentType" : 5123, "count" : 492, "type" : "SCALAR", "max" : [480], "min" : [0]}, {"bufferView" : 1, "byteOffset" : 0, "componentType" : 5126, "count" : 481, "type" : "VEC3", "max" : [0.051956888288259506, 0.11915329843759537, 0.05249487981200218], "min" : [-0.05535854026675224, -0.06175994873046875, -0.043268319219350815], "name" : "POSITION"}, {"bufferView" : 1, "byteOffset" : 12, "componentType" : 5126, "count" : 481, "type" : "VEC3", "max" : [0.9981621503829956, 0.9958176016807556, 0.9988855719566345], "min" : [-0.9934484958648682, -0.9982598423957825, -0.9972173571586609], "name" : "NORMAL"}, {"bufferView" : 0, "byteOffset" : 984, "componentType" : 5123, "count" : 522, "type" : "SCALAR", "max" : [516], "min" : [0]}, {"bufferView" : 2, "byteOffset" : 0, "componentType" : 5126, "count" : 517, "type" : "VEC3", "max" : [0.049004051834344864, 0.025367259979248047, 0.05056082829833031], "min" : [-0.05505064129829407, -0.07934737205505371, -0.04687893018126488], "name" : "POSITION"}, {"bufferView" : 2, "byteOffset" : 12, "componentType" : 5126, "count" : 517, "type" : "VEC3", "max" : [0.9914008975028992, 0.993044912815094, 0.9742024540901184], "min" : [-0.9934269189834595, -0.9973202347755432, -0.9998601675033569], "name" : "NORMAL"}, {"bufferView" : 0, "byteOffset" : 2028, "componentType" : 5123, "count" : 108, "type" : "SCALAR", "max" : [103], "min" : [0]}, {"bufferView" : 3, "byteOffset" : 0, "componentType" : 5126, "count" : 104, "type" : "VEC3", "max" : [-0.002089515095576644, -0.06804227828979492, -0.03554021939635277], "min" : [-0.01803453080356121, -0.08912252634763718, -0.05531466007232666], "name" : "POSITION"}, {"bufferView" : 3, "byteOffset" : 12, "componentType" : 5126, "count" : 104, "type" : "VEC3", "max" : [0.945235013961792, 0.7064482569694519, 0.7018815279006958], "min" : [-0.9822638630867004, -0.9324411153793335, -0.879641592502594], "name" : "NORMAL"}], "asset" : {"generator" : "Aspose.3D 24.1.0", "version" : "2.0"}, "buffers" : [{"uri" : "data:application/octet-stream;base64,", "byteLength" : 29188}], "bufferViews" : [{"buffer" : 0, "byteOffset" : 0, "byteLength" : 2244, "target" : 34963}, {"buffer" : 0, "byteOffset" : 2248, "byteLength" : 11808, "byteStride" : 24, "target" : 34962}, {"buffer" : 0, "byteOffset" : 14060, "byteLength" : 12528, "byteStride" : 24, "target" : 34962}, {"buffer" : 0, "byteOffset" : 26592, "byteLength" : 2592, "byteStride" : 24, "target" : 34962}], "materials" : [{"name" : "mat18", "pbrMetallicRoughness" : {"baseColorFactor" : [1, 0.61, 0.25, 1], "metallicFactor" : 0, "roughnessFactor" : 1}, "emissiveFactor" : [0, 0, 0], "alphaMode" : "OPAQUE", "doubleSided" : false}, {"name" : "mat12", "pbrMetallicRoughness" : {"baseColorFactor" : [1, 0.83, 0.04, 1], "metallicFactor" : 0, "roughnessFactor" : 1}, "emissiveFactor" : [0, 0, 0], "alphaMode" : "OPAQUE", "doubleSided" : false}, {"name" : "mat20", "pbrMetallicRoughness" : {"baseColorFactor" : [0.19, 0.09, 0.06, 1], "metallicFactor" : 0, "roughnessFactor" : 1}, "emissiveFactor" : [0, 0, 0], "alphaMode" : "OPAQUE", "doubleSided" : false}], "meshes" : [{"primitives" : [{"attributes" : {"POSITION" : 1, "NORMAL" : 2}, "indices" : 0, "material" : 0, "mode" : 4}, {"attributes" : {"POSITION" : 4, "NORMAL" : 5}, "indices" : 3, "material" : 1, "mode" : 4}, {"attributes" : {"POSITION" : 7, "NORMAL" : 8}, "indices" : 6, "material" : 2, "mode" : 4}]}], "nodes" : [{"mesh" : 0, "name" : "Node"}], "scene" : 0, "scenes" : [{"nodes" : [0]}]}